<?xml version="1.0" encoding="utf-8"?>
<!-- Generator: Adobe Illustrator 28.5.0, SVG Export Plug-In . SVG Version: 9.03 Build 54727)  -->
<svg version="1.0" id="Warstwa_3" xmlns="http://www.w3.org/2000/svg" xmlns:xlink="http://www.w3.org/1999/xlink" x="0px" y="0px"
	 viewBox="0 0 1024 1024" enable-background="new 0 0 1024 1024" xml:space="preserve">
<path fill="none" stroke="#000000" stroke-width="25" stroke-miterlimit="10" d="M776.21,170.5v780h-547.5v-780H430.5v31h-25.79
	c-37.67,0-68.21,30.54-68.21,68.21v8.79h332v-8.79c0-37.67-30.54-68.21-68.21-68.21H575.5v-31H776.21z"/>
<path fill="none" stroke="#000000" stroke-width="25" stroke-miterlimit="10" d="M668.5,269.71v8.79h-332v-8.79
	c0-1.01,0.02-2.01,0.07-3c1.57-36.28,31.48-65.21,68.14-65.21h25.79v-54h7.67l29.84-87h65.33l32.47,87h9.69v54h24.79
	c29.52,0,54.67,18.76,64.16,45.01C667.07,253.75,668.5,261.56,668.5,269.71z"/>
<line fill="none" stroke="#000000" stroke-width="25" stroke-miterlimit="10" x1="459.5" y1="223.5" x2="548.5" y2="223.5"/>
<ellipse fill="none" stroke="#000000" stroke-width="25" stroke-miterlimit="10" cx="503" cy="109.5" rx="8.5" ry="12"/>
<polygon fill="none" stroke="#000000" stroke-width="25" stroke-miterlimit="10" points="403.82,891.76 326.2,896.54 325.38,883.2 
	"/>
<path fill="none" stroke="#000000" stroke-width="25" stroke-miterlimit="10" d="M736.42,871.27l-60.19,3.71l-272.41,16.78
	l-78.44-8.56l-22.91-371.75l-14.89-241.72l41.56-2.56l7.43-0.46c-0.05,0.99-0.07,1.99-0.07,3v8.79h332v-8.79
	c0-8.15-1.43-15.96-4.05-23.2l33.35-2.05l2.96,47.98l14.09,228.74L736.42,871.27z"/>
<polygon fill="none" stroke="#000000" stroke-width="25" stroke-miterlimit="10" points="325.38,883.2 262.64,876.35 302.47,511.45 
	"/>
<polygon fill="none" stroke="#000000" stroke-width="25" stroke-miterlimit="10" points="676.23,874.98 671.21,920.94 
	403.82,891.76 "/>
<polygon fill="none" stroke="#000000" stroke-width="25" stroke-miterlimit="10" points="739.36,296.65 714.85,521.18 
	700.76,292.44 "/>
<path fill="none" stroke="#000000" stroke-width="15" stroke-miterlimit="10" d="M336.43,379.66c1.55-7.91,5.37-15.36,10.88-21.25
	c11.05,3.42,20.91,10.53,27.66,19.93c1.64,2.28,3.48,4.94,6.28,5.22c2.34,0.23,4.43-1.32,6.3-2.74
	c11.08-8.46,23.32-15.41,36.27-20.59c4.18-1.67,8.5-3.17,13-3.46c8.87-0.55,17.51,3.8,23.9,9.98s10.86,14.04,14.95,21.93
	c5.01-9.62,11.44-18.51,19-26.3c13.83,3.99,27.66,7.98,41.49,11.98c8.66,2.5,17.77,5.02,26.57,3.07c6.28-1.39,11.84-4.94,17.74-7.5
	c4.63-2.01,9.53-3.41,14.52-4.17c2.06-0.31,4.24-0.5,6.18,0.27c2.18,0.87,3.7,2.82,5.11,4.7c5.1,6.84,10.23,14.13,17.77,18.11
	s18.36,3.33,22.99-3.84"/>
<path fill="none" stroke="#000000" stroke-width="15" stroke-miterlimit="10" d="M364.99,479.75c5.63-8.2,11.57-16.4,19.46-22.46
	s18.08-9.81,27.85-7.93c10.28,1.98,18.72,9.78,29,11.75c15,2.88,29.33-7.14,44.5-8.97c13.13-1.58,26.27,3.09,37.91,9.38
	c2.23,1.2,4.46,2.48,6.94,3.01c5.14,1.09,10.3-1.2,15.16-3.19c15.12-6.19,32.09-9.91,47.77-5.32c15.82,4.63,28.16,16.99,43.18,23.77
	c5.98-9.09,10.83-18.92,14.4-29.2"/>
<path fill="none" stroke="#000000" stroke-width="15" stroke-miterlimit="10" d="M379.82,550.31c4.44,0.66,8.18-3.07,11.21-6.39
	c14.61-16.02,31.6-29.86,50.24-40.93c3.11-1.85,6.92-3.66,10.19-2.12c2.74,1.29,3.99,4.43,4.99,7.29
	c5.82,16.63,11.64,33.27,17.47,49.9c6.79-9.25,13.58-18.5,20.37-27.76c1.9-2.58,3.95-5.3,6.94-6.46c7.42-2.88,14.24,5.02,21.63,7.95
	c10.48,4.15,21.85-2.02,32.28-6.28c13.59-5.54,28.45-7.95,43.1-6.99c1.73,0.11,3.57,0.31,4.94,1.39c1.15,0.9,1.79,2.28,2.39,3.62
	c4.36,9.68,8.72,19.36,13.07,29.04c6.63-2.7,13.25-5.4,19.88-8.1c1.52,4.4,5.82,7.69,10.46,8.01"/>
<path fill="none" stroke="#000000" stroke-width="15" stroke-miterlimit="10" d="M386.1,680.55c-0.59-2.81,2.32-4.99,4.85-6.35
	c28.27-15.23,57.74-28.21,88.07-38.77c1.32,12.76,2.63,25.53,3.95,38.29c13.28-9.46,26.57-18.92,39.85-28.37
	c4.11,8.29,8.22,16.58,12.34,24.87c0.82,1.65,1.76,3.42,3.43,4.17c2.72,1.22,5.73-0.8,7.95-2.8c5.58-5.03,10.63-10.63,15.06-16.7
	c6.75,7.74,13.5,15.49,20.25,23.23c7.31-11.62,14.62-23.23,21.93-34.85c0.73-1.17,1.57-2.42,2.89-2.84
	c2.74-0.87,4.93,2.26,6.26,4.82c7.1,13.68,19.08,24.76,33.28,30.77c-2.96-9.19-5.05-21.25,2.87-26.78"/>
<path fill="none" stroke="#000000" stroke-width="15" stroke-miterlimit="10" d="M617.73,769.21c-10.04-0.34-20.08-0.68-30.12-1.02
	c-16.17-0.55-33.66-0.72-46.81,8.69c-3.76,2.69-8.03,6.31-12.4,4.79c-2.2-0.76-3.75-2.69-5.09-4.59
	c-6.55-9.33-10.75-20.3-12.11-31.62c-6.49,1.7-10.67,7.78-14.73,13.13c-8.21,10.78-18.26,20.16-29.58,27.61
	c-3.03,1.99-6.38,3.91-10.01,3.79c-5.27-0.18-9.4-4.6-12.09-9.13s-4.72-9.66-8.71-13.11"/>
<path fill="none" stroke="#000000" stroke-width="15" stroke-miterlimit="10" d="M401.2,792.43c-5.9-4.06-11.8-8.11-17.7-12.17
	c-0.94-0.64-1.95-1.31-3.09-1.3c-2.38,0.04-3.55,2.78-4.87,4.76c-3.67,5.5-11.2,6.51-17.79,7"/>
<path fill="none" stroke="#000000" stroke-width="15" stroke-miterlimit="10" d="M636.11,778c5.46,0.38,10.97,0.06,16.36-0.94"/>
</svg>
